<svg xmlns="http://www.w3.org/2000/svg" viewBox="0 0 160 70" width="100" height="30">
    <!-- 'g' in Google style -->
    <path d="M35,10 A25,25 0 1,1 35,60 A25,25 0 0,1 10,35 L20,35 A15,15 0 1,0 35,50 A15,15 0 1,0 50,35 L35,35 L35,45 L50,45 L50,30 L40,30" fill="#4285F4"/>
    <path d="M50,45 L35,45 L35,60 A25,25 0 0,0 60,35 L50,30 L50,45 Z" fill="#34A853"/>
    <path d="M35,50 A15,15 0 0,1 20,35 L10,35 A25,25 0 0,0 35,60 A25,25 0 0,0 55,50 L35,50 Z" fill="#FBBC05"/>
    <path d="M35,20 A15,15 0 1,1 50,35 L55,35 L55,25 L50,25 A25,25 0 0,0 35,10 A25,25 0 0,0 10,35 L20,35 A15,15 0 0,1 35,20 Z" fill="#EA4335"/>

    <!-- 'k' in Google style -->
    <path d="M100,10 L100,60 M100,35 L125,10 M100,35 L125,60" stroke="#4285F4" stroke-width="12" stroke-linecap="round"/>
</svg>
